<svg width="85" height="85" viewBox="0 0 85 85" fill="none" xmlns="http://www.w3.org/2000/svg">
<path d="M74.4236 69.8941C74.1933 69.8939 73.9678 69.8282 73.7734 69.7048C73.5791 69.5813 73.4238 69.4051 73.3258 69.1967C73.2278 68.9883 73.1911 68.7563 73.2199 68.5279C73.2487 68.2994 73.3419 68.0838 73.4886 67.9063C74.1564 67.0964 74.8364 66.1966 75.565 65.1548C75.7509 64.8942 76.0321 64.7176 76.3475 64.6634C76.6629 64.6091 76.987 64.6815 77.2493 64.8649C77.5116 65.0483 77.6909 65.3278 77.7481 65.6427C77.8054 65.9576 77.7361 66.2823 77.5552 66.5463C76.789 67.6392 76.0701 68.5936 75.3598 69.4533C75.2458 69.5912 75.1028 69.7022 74.941 69.7784C74.7791 69.8546 74.6024 69.8941 74.4236 69.8941V69.8941Z" fill="#017EB1"/>
<path d="M42.5 84.9997C34.0943 84.9997 25.8774 82.5071 18.8883 77.8372C11.8992 73.1672 6.45186 66.5297 3.23514 58.7639C0.0184147 50.998 -0.823227 42.4527 0.816645 34.2086C2.45652 25.9644 6.50425 18.3916 12.448 12.4479C18.3917 6.50423 25.9645 2.45651 34.2087 0.816642C42.4529 -0.823224 50.9982 0.0184144 58.7641 3.23513C66.5299 6.45184 73.1675 11.8992 77.8375 18.8882C82.5074 25.8773 85 34.0942 85 42.4999C85 43.7773 84.9466 44.9746 84.8373 46.1573C84.8077 46.4686 84.6602 46.7567 84.4249 46.9626C84.1896 47.1686 83.8844 47.2767 83.572 47.2647C83.261 47.2504 82.9674 47.1172 82.7518 46.8925C82.5362 46.6679 82.4151 46.369 82.4136 46.0577C82.4136 46.0201 82.4136 45.9715 82.4136 45.9363C82.5216 44.8252 82.5714 43.702 82.5714 42.4999C82.5714 34.5745 80.2213 26.8271 75.8182 20.2375C71.4151 13.6478 65.1568 8.51173 57.8347 5.47883C50.5126 2.44593 42.4556 1.65238 34.6825 3.19854C26.9094 4.7447 19.7693 8.56112 14.1652 14.1652C8.56115 19.7693 4.74472 26.9093 3.19855 34.6823C1.65239 42.4554 2.44593 50.5124 5.47885 57.8345C8.51176 65.1566 13.6478 71.4148 20.2375 75.8179C26.8272 80.221 34.5746 82.5711 42.5 82.5711C51.553 82.6054 60.3451 79.5403 67.4147 73.8854C67.6671 73.6871 67.9877 73.5967 68.3064 73.6341C68.6252 73.6714 68.9162 73.8335 69.1159 74.0848C69.3155 74.3361 69.4075 74.6562 69.3718 74.9752C69.3361 75.2942 69.1756 75.586 68.9253 75.787C61.4267 81.7842 52.1018 85.0352 42.5 84.9997V84.9997Z" fill="#017EB1"/>
<path d="M80.6164 59.591C80.2954 59.591 79.9875 59.4639 79.76 59.2375C79.5324 59.011 79.4038 58.7037 79.4022 58.3827V58.3706C79.4024 58.2096 79.4346 58.0503 79.4969 57.9019C79.9826 56.7362 80.3845 55.6445 80.7197 54.5626C80.8196 54.2607 81.034 54.0099 81.3168 53.8644C81.5996 53.7188 81.9282 53.69 82.232 53.7842C82.5358 53.8783 82.7905 54.0879 82.9414 54.3679C83.0923 54.6479 83.1273 54.9759 83.0389 55.2815C82.6844 56.4265 82.263 57.5801 81.7518 58.8029C81.6651 59.0341 81.51 59.2334 81.3072 59.3742C81.1043 59.515 80.8634 59.5906 80.6164 59.591Z" fill="#017EB1"/>
<path d="M42.5 76.4973C35.7754 76.4973 29.2019 74.5033 23.6106 70.7673C18.0194 67.0314 13.6615 61.7213 11.0881 55.5086C8.51473 49.296 7.84142 42.4597 9.15332 35.8644C10.4652 29.2691 13.7034 23.2109 18.4584 18.4559C23.2134 13.7009 29.2716 10.4628 35.8669 9.15087C42.4623 7.83898 49.2986 8.51229 55.5112 11.0857C61.7239 13.659 67.034 18.0169 70.77 23.6081C74.5059 29.1994 76.5 35.7729 76.5 42.4974C76.4897 51.5116 72.9043 60.1536 66.5303 66.5276C60.1563 72.9016 51.5142 76.487 42.5 76.4973V76.4973ZM42.5 10.9261C36.2558 10.9261 30.1518 12.7778 24.9599 16.2469C19.768 19.716 15.7214 24.6467 13.3318 30.4156C10.9423 36.1845 10.317 42.5325 11.5352 48.6567C12.7534 54.7809 15.7603 60.4064 20.1756 64.8217C24.591 69.2371 30.2165 72.2439 36.3407 73.4621C42.465 74.6803 48.8129 74.0551 54.5819 71.6655C60.3508 69.276 65.2816 65.2294 68.7507 60.0375C72.2198 54.8457 74.0714 48.7417 74.0714 42.4974C74.0621 34.1271 70.7328 26.1022 64.8141 20.1835C58.8953 14.2647 50.8704 10.9355 42.5 10.9261V10.9261Z" fill="#017EB1"/>
<path d="M42.5 20.6403C42.178 20.6403 41.8691 20.5124 41.6414 20.2847C41.4137 20.057 41.2857 19.7481 41.2857 19.426V16.9975C41.2857 16.6754 41.4137 16.3666 41.6414 16.1389C41.8691 15.9111 42.178 15.7832 42.5 15.7832C42.8221 15.7832 43.1309 15.9111 43.3587 16.1389C43.5864 16.3666 43.7143 16.6754 43.7143 16.9975V19.426C43.7143 19.7481 43.5864 20.057 43.3587 20.2847C43.1309 20.5124 42.8221 20.6403 42.5 20.6403Z" fill="#017EB1"/>
<path d="M26.1861 27.3978C25.8641 27.3977 25.5552 27.2697 25.3276 27.042L23.6106 25.325C23.4946 25.213 23.4021 25.079 23.3385 24.9309C23.2748 24.7827 23.2413 24.6234 23.2399 24.4621C23.2385 24.3009 23.2692 24.141 23.3303 23.9918C23.3913 23.8425 23.4815 23.707 23.5955 23.593C23.7095 23.4789 23.8451 23.3888 23.9943 23.3277C24.1436 23.2667 24.3035 23.2359 24.4647 23.2374C24.6259 23.2388 24.7853 23.2722 24.9334 23.3359C25.0816 23.3995 25.2156 23.492 25.3276 23.608L27.0446 25.325C27.2143 25.4948 27.33 25.7112 27.3768 25.9467C27.4236 26.1822 27.3996 26.4263 27.3077 26.6482C27.2158 26.87 27.0602 27.0596 26.8606 27.1931C26.6609 27.3265 26.4262 27.3977 26.1861 27.3978Z" fill="#017EB1"/>
<path d="M19.4286 43.7118H17C16.678 43.7118 16.3691 43.5838 16.1414 43.3561C15.9137 43.1284 15.7857 42.8195 15.7857 42.4975C15.7857 42.1754 15.9137 41.8666 16.1414 41.6389C16.3691 41.4111 16.678 41.2832 17 41.2832H19.4286C19.7506 41.2832 20.0595 41.4111 20.2872 41.6389C20.5149 41.8666 20.6429 42.1754 20.6429 42.4975C20.6429 42.8195 20.5149 43.1284 20.2872 43.3561C20.0595 43.5838 19.7506 43.7118 19.4286 43.7118Z" fill="#017EB1"/>
<path d="M24.4691 61.7424C24.229 61.7424 23.9942 61.6712 23.7946 61.5377C23.595 61.4043 23.4394 61.2147 23.3475 60.9928C23.2556 60.771 23.2316 60.5269 23.2784 60.2913C23.3252 60.0558 23.4408 59.8395 23.6106 59.6697L25.3276 57.9527C25.5566 57.7315 25.8633 57.6091 26.1817 57.6119C26.5001 57.6146 26.8047 57.7423 27.0298 57.9675C27.2549 58.1926 27.3826 58.4972 27.3854 58.8155C27.3882 59.1339 27.2658 59.4407 27.0446 59.6697L25.3276 61.3867C25.0999 61.6144 24.7911 61.7424 24.4691 61.7424V61.7424Z" fill="#017EB1"/>
<path d="M42.5 69.2116C42.178 69.2116 41.8691 69.0837 41.6414 68.856C41.4137 68.6282 41.2857 68.3194 41.2857 67.9973V65.5688C41.2857 65.2467 41.4137 64.9379 41.6414 64.7101C41.8691 64.4824 42.178 64.3545 42.5 64.3545C42.8221 64.3545 43.1309 64.4824 43.3587 64.7101C43.5864 64.9379 43.7143 65.2467 43.7143 65.5688V67.9973C43.7143 68.3194 43.5864 68.6282 43.3587 68.856C43.1309 69.0837 42.8221 69.2116 42.5 69.2116Z" fill="#017EB1"/>
<path d="M60.5309 61.7424C60.2089 61.7424 59.9001 61.6144 59.6724 61.3867L57.9554 59.6697C57.7342 59.4407 57.6118 59.1339 57.6146 58.8155C57.6174 58.4972 57.7451 58.1926 57.9702 57.9675C58.1954 57.7423 58.4999 57.6146 58.8183 57.6119C59.1367 57.6091 59.4434 57.7315 59.6724 57.9527L61.3894 59.6697C61.5592 59.8395 61.6748 60.0558 61.7216 60.2913C61.7685 60.5269 61.7444 60.771 61.6525 60.9928C61.5607 61.2147 61.4051 61.4043 61.2054 61.5377C61.0058 61.6712 60.7711 61.7424 60.5309 61.7424Z" fill="#017EB1"/>
<path d="M68 43.7118H65.5714C65.2494 43.7118 64.9405 43.5838 64.7128 43.3561C64.4851 43.1284 64.3571 42.8195 64.3571 42.4975C64.3571 42.1754 64.4851 41.8666 64.7128 41.6389C64.9405 41.4111 65.2494 41.2832 65.5714 41.2832H68C68.3221 41.2832 68.6309 41.4111 68.8586 41.6389C69.0864 41.8666 69.2143 42.1754 69.2143 42.4975C69.2143 42.8195 69.0864 43.1284 68.8586 43.3561C68.6309 43.5838 68.3221 43.7118 68 43.7118Z" fill="#017EB1"/>
<path d="M58.8139 27.3978C58.5738 27.3977 58.3391 27.3265 58.1395 27.1931C57.9398 27.0596 57.7842 26.87 57.6923 26.6482C57.6004 26.4263 57.5764 26.1822 57.6232 25.9467C57.6701 25.7112 57.7857 25.4948 57.9554 25.325L59.6724 23.608C59.7845 23.492 59.9184 23.3995 60.0666 23.3359C60.2147 23.2722 60.3741 23.2388 60.5353 23.2374C60.6965 23.2359 60.8564 23.2667 61.0057 23.3277C61.1549 23.3888 61.2905 23.4789 61.4045 23.593C61.5185 23.707 61.6087 23.8425 61.6697 23.9918C61.7308 24.141 61.7615 24.3009 61.7601 24.4621C61.7587 24.6234 61.7252 24.7827 61.6616 24.9309C61.5979 25.079 61.5054 25.213 61.3894 25.325L59.6724 27.042C59.4448 27.2697 59.136 27.3977 58.8139 27.3978Z" fill="#017EB1"/>
<path d="M35.5179 50.684C35.2777 50.684 35.043 50.6127 34.8434 50.4793C34.6437 50.3459 34.4881 50.1562 34.3963 49.9344C34.3044 49.7126 34.2803 49.4684 34.3272 49.2329C34.374 48.9974 34.4896 48.7811 34.6594 48.6112L41.2857 41.9849V27.0055C41.2857 26.6835 41.4136 26.3746 41.6414 26.1469C41.8691 25.9192 42.178 25.7913 42.5 25.7913C42.822 25.7913 43.1309 25.9192 43.3586 26.1469C43.5864 26.3746 43.7143 26.6835 43.7143 27.0055V42.4876C43.7142 42.8097 43.5862 43.1185 43.3585 43.3461L36.3764 50.3282C36.1487 50.556 35.8399 50.684 35.5179 50.684V50.684Z" fill="#017EB1"/>
</svg>
