<svg width="85" height="85" viewBox="0 0 85 85" fill="none" xmlns="http://www.w3.org/2000/svg">
<path d="M37.752 3.40002C36.9152 3.40002 36.2047 4.00432 36.0719 4.82112L34.4184 14.9481C32.4328 15.5258 30.5336 16.3094 28.7473 17.2789L20.3934 11.309C19.716 10.8309 18.793 10.9039 18.202 11.4883L11.5879 18.0957C11.0102 18.6801 10.9305 19.6031 11.402 20.2739L17.2789 28.6809C16.2895 30.4805 15.4926 32.3864 14.9016 34.3918L4.8211 36.0719C4.0043 36.2114 3.4 36.9153 3.40664 37.752V47.102C3.4 47.9254 3.99102 48.6293 4.80117 48.7754L14.8883 50.5617C15.4793 52.5672 16.2762 54.4731 17.259 56.2727L11.309 64.6C10.8309 65.2707 10.9039 66.1938 11.4883 66.7848L18.1023 73.3988C18.6867 73.9832 19.6031 74.0629 20.2738 73.5914L28.7008 67.6946C30.4938 68.6707 32.393 69.461 34.3852 70.0453L36.0719 80.1789C36.2113 80.9957 36.9152 81.6 37.7453 81.6H47.0953C47.9254 81.6 48.6293 81.009 48.7754 80.1988L50.575 70.0188C52.5672 69.4278 54.4598 68.6309 56.2395 67.6481L64.7195 73.5981C65.3969 74.0696 66.3133 73.9899 66.8977 73.4055L73.5051 66.7914C74.0961 66.2004 74.1691 65.2707 73.6844 64.5934L67.6348 56.1996C68.6043 54.4266 69.3813 52.5473 69.959 50.575L80.1922 48.7821C81.0024 48.636 81.6 47.9254 81.5934 47.102V37.752C81.5934 36.9219 80.9957 36.2114 80.1723 36.0785L69.959 34.4051C69.3746 32.4328 68.5977 30.5602 67.6281 28.7871L73.5914 20.2871C74.0629 19.6098 73.9832 18.6934 73.3988 18.109L66.7848 11.5016C66.2004 10.9106 65.2707 10.8375 64.5934 11.3223L56.2195 17.3453C54.4398 16.3625 52.5473 15.5656 50.5551 14.9813L48.7754 4.80784C48.6359 3.99104 47.9254 3.40002 47.0953 3.40002H37.752ZM39.1996 6.80002H45.6742L47.3676 16.4621C47.4805 17.1262 47.9719 17.6574 48.6293 17.8235C51.1129 18.441 53.4504 19.4239 55.582 20.7121C56.1598 21.0707 56.8969 21.0375 57.4547 20.6457L65.4102 14.9215L69.9856 19.5035L64.3211 27.5785C63.9359 28.1231 63.9094 28.8535 64.2547 29.4246C65.5297 31.5563 66.4992 33.8739 67.1168 36.3442C67.2828 37.0082 67.8274 37.4996 68.4914 37.6125L78.1934 39.1996V45.6742L68.4715 47.3809C67.8141 47.5004 67.2828 47.9985 67.1168 48.6492C66.5059 51.1196 65.5363 53.4371 64.2613 55.5621C63.9094 56.1465 63.9426 56.8836 64.3344 57.4348L70.0785 65.4035L65.5031 69.9856L57.448 64.3344C56.8902 63.9492 56.1598 63.9227 55.5887 64.2746C53.4637 65.5629 51.1262 66.5524 48.6492 67.1766C47.9984 67.3426 47.507 67.8738 47.3941 68.5313L45.6742 78.2H39.193L37.5926 68.5711C37.4797 67.9071 36.9816 67.3692 36.3242 67.2031C33.834 66.5922 31.4898 65.6094 29.3449 64.3211C28.7672 63.9758 28.0434 64.0024 27.4922 64.3875L19.4969 69.9856L14.9148 65.3969L20.566 57.5012C20.9578 56.95 20.991 56.2129 20.6324 55.6285C19.3309 53.477 18.348 51.1328 17.7238 48.636C17.5645 47.9852 17.0332 47.4938 16.3758 47.3742L6.8 45.6742V39.1864L16.3691 37.5992C17.0398 37.4863 17.5777 36.9883 17.7371 36.3309C18.368 33.8274 19.3508 31.4832 20.6457 29.3317C20.9977 28.7606 20.9777 28.0301 20.5859 27.4789L15.0012 19.4969L19.5898 14.9149L27.5121 20.5793C28.0633 20.9711 28.8004 20.9977 29.3781 20.6524C31.5098 19.3707 33.8605 18.3946 36.3508 17.7836C37.0148 17.6242 37.5195 17.0797 37.6258 16.409L39.1996 6.80002ZM42.5 28.9C35.0094 28.9 28.9 35.0094 28.9 42.5C28.9 49.9906 35.0094 56.1 42.5 56.1C49.9906 56.1 56.1 49.9906 56.1 42.5C56.1 35.0094 49.9906 28.9 42.5 28.9ZM42.5 32.3C48.1512 32.3 52.7 36.8489 52.7 42.5C52.7 48.1512 48.1512 52.7 42.5 52.7C36.8488 52.7 32.3 48.1512 32.3 42.5C32.3 36.8489 36.8488 32.3 42.5 32.3Z" fill="#017EB1"/>
</svg>
