<svg height="512" viewBox="0 0 64 64" width="512" xmlns="http://www.w3.org/2000/svg"><path d="m54.64 28a22.65 22.65 0 0 0 -3.8-9.18l4.49-4.5-5.65-5.65-4.5 4.49a22.65 22.65 0 0 0 -9.18-3.8v-6.36h-8v6.36a22.65 22.65 0 0 0 -9.18 3.8l-4.5-4.49-5.65 5.65 4.49 4.5a22.65 22.65 0 0 0 -3.8 9.18h-6.36v8h6.36a22.65 22.65 0 0 0 3.8 9.18l-4.49 4.5 5.65 5.65 4.5-4.49a22.65 22.65 0 0 0 9.18 3.8v6.36h8v-6.36a22.65 22.65 0 0 0 9.18-3.8l5.66-5.66a22.65 22.65 0 0 0 3.8-9.18h6.36v-8zm-8.13 12.86-5.65 5.65a17 17 0 1 1 5.65-5.65z" fill="#9bc9ff"/><path d="m59.577 53.92-13.064-13.064-6.083-6.083a4.031 4.031 0 0 1 -1.13-3.341 8.992 8.992 0 0 0 -12.808-9.186l5.508 5.511v4.243h-4.243l-5.511-5.511a8.992 8.992 0 0 0 9.186 12.811 4.034 4.034 0 0 1 3.341 1.132l6.083 6.083 13.064 13.062a4 4 0 0 0 5.657-5.657z" fill="#9bc9ff"/><g fill="#1e81ce"><path d="m61 37a1 1 0 0 0 1-1v-8a1 1 0 0 0 -1-1h-5.533a23.856 23.856 0 0 0 -3.337-8.057l3.908-3.917a1 1 0 0 0 0-1.413l-5.65-5.65a1 1 0 0 0 -1.413 0l-3.918 3.907a23.856 23.856 0 0 0 -8.057-3.337v-5.533a1 1 0 0 0 -1-1h-8a1 1 0 0 0 -1 1v5.533a23.856 23.856 0 0 0 -8.057 3.337l-3.917-3.908a1 1 0 0 0 -1.413 0l-5.65 5.65a1 1 0 0 0 0 1.413l3.908 3.917a23.856 23.856 0 0 0 -3.338 8.058h-5.533a1 1 0 0 0 -1 1v8a1 1 0 0 0 1 1h5.533a23.856 23.856 0 0 0 3.337 8.057l-3.908 3.917a1 1 0 0 0 0 1.413l5.65 5.65a1 1 0 0 0 1.413 0l3.917-3.908a23.856 23.856 0 0 0 8.058 3.338v5.533a1 1 0 0 0 1 1h8a1 1 0 0 0 1-1v-5.533a23.88 23.88 0 0 0 8.054-3.342l8.159 8.159a5 5 0 0 0 7.071-7.071l-8.159-8.159a23.88 23.88 0 0 0 3.342-8.054zm-2.13 21.87a3 3 0 0 1 -4.243 0l-19.148-19.147a4.979 4.979 0 0 0 -3.542-1.456 5.249 5.249 0 0 0 -.624.037 7.993 7.993 0 0 1 -8.674-10.004l4.411 4.412a1 1 0 0 0 .707.293h4.243a1 1 0 0 0 1-1v-4.248a1 1 0 0 0 -.293-.707l-4.407-4.411a7.993 7.993 0 0 1 10 8.674 5.006 5.006 0 0 0 1.419 4.166l19.151 19.148a3 3 0 0 1 0 4.243zm-17.733-24.8a3.015 3.015 0 0 1 -.846-2.515 9.993 9.993 0 0 0 -14.235-10.21 1 1 0 0 0 -.274 1.609l5.218 5.217v2.829h-2.829l-5.217-5.218a1 1 0 0 0 -1.609.274 9.992 9.992 0 0 0 10.205 14.234 3.016 3.016 0 0 1 2.515.847l5.144 5.143a16.01 16.01 0 1 1 7.071-7.071zm12.518 1.766a21.8 21.8 0 0 1 -2.974 7.779l-2.924-2.924a18.021 18.021 0 1 0 -7.071 7.071l2.924 2.924a21.8 21.8 0 0 1 -7.779 2.974 1 1 0 0 0 -.831.98v5.36h-6v-5.36a1 1 0 0 0 -.831-.985 21.789 21.789 0 0 1 -8.769-3.634 1 1 0 0 0 -1.282.111l-3.792 3.785-4.238-4.238 3.785-3.792a1 1 0 0 0 .111-1.282 21.789 21.789 0 0 1 -3.634-8.774 1 1 0 0 0 -.99-.831h-5.36v-6h5.36a1 1 0 0 0 .985-.831 21.789 21.789 0 0 1 3.634-8.769 1 1 0 0 0 -.111-1.282l-3.785-3.792 4.238-4.238 3.792 3.785a1 1 0 0 0 1.282.111 21.789 21.789 0 0 1 8.774-3.634 1 1 0 0 0 .831-.99v-5.36h6v5.36a1 1 0 0 0 .831.985 21.789 21.789 0 0 1 8.774 3.634 1 1 0 0 0 1.282-.111l3.792-3.785 4.238 4.238-3.785 3.792a1 1 0 0 0 -.111 1.282 21.789 21.789 0 0 1 3.634 8.774 1 1 0 0 0 .985.831h5.36v6h-5.36a1 1 0 0 0 -.985.831z"/><path d="m38.364 36.95a1 1 0 1 0 -1.414 1.414l.707.707a1 1 0 0 0 1.414-1.414z"/><path d="m52.506 53.92a1 1 0 0 0 1.414-1.414l-12.02-12.021a1 1 0 0 0 -1.415 1.415z"/><path d="m56.042 57.456a1 1 0 0 0 1.414-1.414l-.707-.708a1 1 0 1 0 -1.415 1.415z"/></g></svg>