<svg width="70" height="58" viewBox="0 0 70 58" fill="none" xmlns="http://www.w3.org/2000/svg">
<path d="M58.6646 50.4405H54.8232C54.5943 51.7144 53.8839 52.8718 52.8184 53.7068C51.7529 54.5417 50.4014 55 49.0047 55C47.608 55 46.2565 54.5417 45.191 53.7068C44.1255 52.8718 43.4151 51.7144 43.1862 50.4405H21.8802C21.6512 51.7143 20.9407 52.8717 19.8752 53.7066C18.8097 54.5415 17.4583 54.9998 16.0616 54.9998C14.6649 54.9998 13.3135 54.5415 12.248 53.7066C11.1825 52.8717 10.472 51.7143 10.243 50.4405H5.33536C5.16193 50.4439 4.9895 50.4154 4.8281 50.3566C4.66671 50.2978 4.51959 50.2099 4.39531 50.098C4.27102 49.9861 4.17207 49.8524 4.1042 49.7048C4.03633 49.5572 4.00091 49.3986 4 49.2383V21.1283C4.00194 20.451 4.14862 19.7806 4.43161 19.1559C4.7146 18.5311 5.12832 17.9641 5.64901 17.4876C6.16969 17.0111 6.78708 16.6344 7.46571 16.3791C8.14434 16.1238 8.87083 15.9951 9.60345 16.0001H33.3034C34.0361 15.995 34.7626 16.1238 35.4413 16.379C36.12 16.6343 36.7374 17.011 37.2582 17.4875C37.7789 17.964 38.1927 18.531 38.4757 19.1558C38.7588 19.7806 38.9055 20.4509 38.9075 21.1283V22.5005H49.4196C52.5092 22.5005 55.0661 24.463 55.0661 26.8665V29.4684C55.0661 29.9093 54.6365 30.2553 54.1595 30.2553H53.0659L56.0585 39.5563C58.3461 40.4683 60 43.1298 60 45.4018V49.2383C59.9991 49.3986 59.9637 49.5572 59.8958 49.7048C59.8279 49.8524 59.729 49.9861 59.6047 50.098C59.4804 50.2099 59.3333 50.2978 59.1719 50.3566C59.0105 50.4154 58.8381 50.4439 58.6646 50.4405V50.4405ZM44.8329 49.6562C44.8589 50.6638 45.3103 51.622 46.0906 52.3258C46.8708 53.0296 47.918 53.4232 49.0081 53.4224C50.0983 53.4216 51.1448 53.0265 51.9238 52.3215C52.7029 51.6165 53.1526 50.6577 53.1769 49.6501C53.1777 49.622 53.1776 49.593 53.1776 49.5651C53.1806 49.0567 53.0749 48.5528 52.8665 48.0823C52.6582 47.6118 52.3513 47.184 51.9635 46.8235C51.5757 46.4631 51.1147 46.177 50.6069 45.9818C50.0992 45.7866 49.5547 45.6861 49.0048 45.6861C48.4549 45.6861 47.9104 45.7866 47.4027 45.9818C46.8949 46.177 46.4339 46.4631 46.0461 46.8235C45.6584 47.184 45.3515 47.6118 45.1431 48.0823C44.9348 48.5528 44.829 49.0567 44.832 49.5651C44.832 49.594 44.8319 49.6236 44.8329 49.6562ZM41.6211 39.2645H51.5145L50.5219 35.5011H41.6211V39.2645ZM11.8898 49.6562C11.9151 50.6642 12.3662 51.623 13.1466 52.3274C13.9269 53.0317 14.9745 53.4256 16.065 53.4248C17.1556 53.424 18.2025 53.0285 18.9816 52.323C19.7607 51.6175 20.2102 50.6581 20.2337 49.6501C20.2347 49.622 20.2346 49.593 20.2346 49.5651C20.2358 48.5876 19.8341 47.6463 19.1112 46.9329L19.0998 46.9215L19.0874 46.9092C18.6979 46.5294 18.2287 46.2269 17.7086 46.0202C17.1885 45.8135 16.6283 45.7069 16.0621 45.7069C15.496 45.7069 14.9358 45.8135 14.4157 46.0202C13.8955 46.2269 13.4264 46.5294 13.0368 46.9092C13.0314 46.9143 13.0307 46.9152 13.0245 46.9206L13.0122 46.9329C12.2893 47.6463 11.8877 48.5876 11.8891 49.5651C11.889 49.594 11.8888 49.6236 11.8898 49.6562ZM37.1806 21.1283C37.1789 20.6605 37.077 20.1977 36.8808 19.7665C36.6846 19.3353 36.398 18.9443 36.0376 18.6159C35.6772 18.2876 35.25 18.0285 34.7807 17.8536C34.3114 17.6787 33.8094 17.5914 33.3034 17.5967H9.60345C9.09754 17.5914 8.5955 17.6787 8.12627 17.8537C7.65704 18.0286 7.22992 18.2877 6.86954 18.616C6.50915 18.9443 6.22264 19.3354 6.02652 19.7666C5.83041 20.1977 5.72856 20.6606 5.72687 21.1283V42.2295H37.1806V21.1283ZM38.0441 43.8261H5.72687V48.8439H10.2103C10.3631 47.7123 10.9026 46.6552 11.7502 45.8267C11.755 45.8219 11.7585 45.8267 11.7634 45.8219C11.7717 45.8138 11.7798 45.8105 11.7881 45.8021C12.3391 45.2668 13.0021 44.8406 13.7367 44.5494C14.4714 44.2583 15.2624 44.1083 16.0617 44.1085C16.861 44.1087 17.652 44.2591 18.3864 44.5506C19.1209 44.8421 19.7837 45.2686 20.3344 45.8043C20.3437 45.813 20.353 45.8227 20.3624 45.832C20.3661 45.8355 20.3695 45.823 20.3731 45.8264C21.2208 46.655 21.7604 47.7121 21.9133 48.8439H39.8943V43.8261H38.0441ZM53.3392 28.6587V26.8665C53.3392 25.3692 51.5208 24.097 49.4196 24.097H38.9075V42.2295H39.8943V29.4684C39.8964 29.2544 39.9892 29.0497 40.1528 28.8983C40.3163 28.7469 40.5376 28.6609 40.7691 28.6587H53.3392ZM51.2642 30.2553H41.6211V33.9046H51.197C51.3934 33.9124 51.5816 33.9795 51.7329 34.0955C51.8842 34.2115 51.9903 34.3701 52.0349 34.5471L53.2941 39.2645H54.1516L51.2642 30.2553ZM58.2731 45.4018C58.2731 43.4063 56.3933 40.861 54.3965 40.861H41.6211V48.8439H43.1539C43.5214 46.221 46.0042 44.078 49.0048 44.078C52.0053 44.078 54.4883 46.221 54.8564 48.8439H58.2731V45.4018Z" fill="black"/>
<path d="M48.668 10.5193C48.9062 10.5172 49.1363 10.5901 49.3121 10.7232C49.4676 10.8391 49.5729 10.994 49.612 11.1642C49.6512 11.3344 49.6219 11.5106 49.5288 11.6657C48.9523 12.6397 48.0577 13.4602 46.9466 14.0341C45.8356 14.6079 44.5526 14.9122 43.2433 14.9122C41.9341 14.9029 40.6533 14.5953 39.541 14.0231C38.4288 13.4508 37.528 12.6361 36.9373 11.668H16.6564C16.0658 12.6361 15.165 13.4509 14.0528 14.0232C12.9405 14.5955 11.6596 14.9031 10.3504 14.9124C9.04411 14.9141 7.76336 14.6125 6.65332 14.0419C5.54329 13.4713 4.64836 12.6544 4.06998 11.6839C3.99693 11.563 3.9624 11.4285 3.96969 11.2934C3.97697 11.1583 4.02581 11.0269 4.11159 10.9118C4.19736 10.7967 4.31722 10.7017 4.45977 10.6358C4.60233 10.5699 4.76286 10.5352 4.92611 10.5351H7.88867L9.03109 9.10962L7.78886 7.61011L4.9257 7.58984H4.92187C4.7606 7.59743 4.59978 7.56938 4.45589 7.50856C4.312 7.44774 4.19019 7.35633 4.10294 7.24369C4.01569 7.13105 3.96613 7.00122 3.95933 6.86749C3.95253 6.73377 3.98873 6.60095 4.06423 6.48263C4.65317 5.51258 5.55814 4.69854 6.67666 4.13268C7.79518 3.56682 9.08257 3.27175 10.3931 3.28088C11.7035 3.29 12.9848 3.60296 14.0916 4.18432C15.1985 4.76567 16.0869 5.5922 16.656 6.57031H36.9373C37.5074 5.59285 38.3966 4.76726 39.5041 4.18711C40.6115 3.60695 41.893 3.29543 43.2032 3.28785C44.5134 3.28027 45.7999 3.57693 46.9171 4.14421C48.0342 4.71149 48.9372 5.5267 49.5238 6.49747C49.5965 6.61353 49.631 6.74347 49.6236 6.87412C49.6162 7.00477 49.5672 7.13148 49.4817 7.24138C49.394 7.35288 49.2729 7.44361 49.1302 7.50469C48.9875 7.56577 48.8281 7.59511 48.6676 7.58984H45.7051L44.5627 9.03372L45.8049 10.5161L48.668 10.5193ZM45.3086 12.1211C45.1544 12.1205 45.0027 12.0891 44.8662 12.0297C44.7297 11.9702 44.6125 11.8844 44.5245 11.7795L42.6208 9.52343C42.5104 9.39258 42.4502 9.2372 42.448 9.07756C42.4458 8.91792 42.5017 8.76144 42.6084 8.62851L44.3964 6.38022C44.4824 6.26865 44.5998 6.17609 44.7386 6.11053C44.8773 6.04496 45.0333 6.00837 45.1929 6.0039H46.8036C45.868 5.32421 44.6037 4.83121 43.2433 4.83121C42.201 4.83997 41.1863 5.11015 40.3329 5.60614C39.4795 6.10214 38.8275 6.80069 38.4627 7.60977C38.3963 7.76466 38.2754 7.8995 38.1156 7.99691C37.9558 8.09431 37.7644 8.14981 37.5662 8.15624H16.0275C15.8305 8.15214 15.6395 8.09886 15.4795 8.00336C15.3196 7.90786 15.1981 7.7746 15.1311 7.62099C14.7649 6.81433 14.1118 6.1188 13.2582 5.62643C12.4045 5.13406 11.3905 4.86805 10.3504 4.86361C9.02295 4.85033 7.74264 5.27106 6.78699 6.0346L8.28242 6.0039H8.28515C8.44111 6.00795 8.59366 6.0427 8.7302 6.10528C8.86673 6.16787 8.98332 6.25648 9.07033 6.36379L10.974 8.62942C11.0844 8.76112 11.1446 8.91723 11.1468 9.07756C11.149 9.2379 11.0932 9.3951 10.9864 9.52887L9.19789 11.7612C9.11097 11.8708 8.99285 11.9609 8.85395 12.0238C8.71504 12.0866 8.55961 12.1201 8.40137 12.1214H6.79068C7.72625 12.9144 8.99062 13.3125 10.351 13.3125C11.3883 13.3134 12.4014 13.0526 13.2554 12.5647C14.1094 12.0769 14.7639 11.385 15.1316 10.5814C15.2008 10.4319 15.324 10.3037 15.4843 10.2144C15.6447 10.125 15.8344 10.0788 16.0275 10.082H37.5662C37.7592 10.0783 37.9489 10.124 38.1094 10.2129C38.2698 10.3019 38.3932 10.4297 38.4627 10.579C38.7623 11.2363 39.2547 11.8216 39.8955 12.2819C40.5362 12.7423 41.3051 13.0633 42.1329 13.216C42.9607 13.3687 43.8214 13.3484 44.6373 13.1567C45.4532 12.9651 46.1988 12.6083 46.8068 12.1184L45.3113 12.1211H45.3086Z" fill="black"/>
</svg>
