<svg width="17" height="17" viewBox="0 0 17 17" fill="none" xmlns="http://www.w3.org/2000/svg">
<g clip-path="url(#clip0)">
<path d="M16.5149 12.0137L12.7962 10.4199C12.6373 10.3522 12.4607 10.3379 12.2931 10.3793C12.1254 10.4206 11.9757 10.5152 11.8665 10.649L10.2196 12.6611C7.63497 11.4425 5.55495 9.36247 4.33633 6.77786L6.34844 5.13098C6.48247 5.02197 6.57734 4.87225 6.61868 4.7045C6.66001 4.53675 6.64557 4.3601 6.57754 4.20129L4.98379 0.482544C4.90912 0.311352 4.77706 0.171579 4.61037 0.0873272C4.44369 0.00307529 4.25283 -0.0203746 4.0707 0.021021L0.617578 0.817896C0.44199 0.858443 0.285329 0.957309 0.173166 1.09836C0.0610025 1.23941 -4.04484e-05 1.41431 2.01085e-08 1.59452C2.01085e-08 10.1111 6.90293 17.0008 15.4062 17.0008C15.5865 17.0009 15.7615 16.9399 15.9026 16.8277C16.0437 16.7155 16.1426 16.5588 16.1832 16.3832L16.9801 12.9301C17.0212 12.7471 16.9973 12.5554 16.9124 12.3882C16.8275 12.2209 16.6869 12.0885 16.5149 12.0137Z" fill="white"/>
</g>
<defs>
<clipPath id="clip0">
<rect width="17" height="17" fill="white"/>
</clipPath>
</defs>
</svg>
