<svg width="85" height="86" viewBox="0 0 85 86" fill="none" xmlns="http://www.w3.org/2000/svg">
<path d="M81.0995 8.03639L66.3071 0.792951C64.6845 -0.00142603 62.8235 -0.00123101 61.201 0.793146L54.0988 4.27018C53.464 4.58122 53.1637 5.43784 53.4281 6.18402C53.6926 6.9302 54.4214 7.28338 55.0564 6.97235L62.1586 3.49512C63.1721 2.99871 64.3354 2.99851 65.3497 3.49492L80.1412 10.738C81.5799 11.4434 82.5098 13.0296 82.5098 14.7785V77.3667C82.5098 79.8005 80.7312 81.7805 78.5453 81.7805H76.5266C75.8388 81.7805 75.2814 82.4356 75.2814 83.244C75.2814 84.0524 75.8388 84.7075 76.5266 84.7075H78.5453C82.1044 84.7075 85 81.4145 85 77.3667V14.7785C85 11.8446 83.469 9.1982 81.0995 8.03639V8.03639Z" fill="#017EB1"/>
<path d="M71.0995 81.7807H50.1782C51.0397 80.6298 51.5113 79.1696 51.5113 77.6244C51.5113 76.0823 51.0364 74.669 50.2504 73.5731C50.746 73.2759 51.2049 72.887 51.6099 72.4111C52.6213 71.2222 53.1781 69.6414 53.1781 67.9596C53.1781 66.3564 52.6648 64.8921 51.8223 63.7795C52.2395 63.5018 52.6279 63.1576 52.9759 62.7482C53.9873 61.5597 54.5443 59.9789 54.5443 58.2967C54.5443 56.6982 54.0341 55.2377 53.1964 54.126C53.6206 53.8462 54.0157 53.4977 54.3699 53.0822C55.3807 51.8916 55.9371 50.3112 55.9371 48.6317C55.9371 45.1596 53.5346 42.3348 50.5813 42.3348H44.9982V14.7785C44.9982 13.0294 45.9281 11.4431 47.3661 10.7381L49.6307 9.62979C50.2655 9.31914 50.5659 8.46252 50.3016 7.71615C50.0371 6.96997 49.3083 6.61639 48.6735 6.92762L46.408 8.03636C44.0388 9.19797 42.508 11.8445 42.508 14.7785V42.335H37.3055C39.0379 35.9004 38.8905 29.185 36.8688 21.3909C36.5616 20.2106 35.9507 19.1996 35.1015 18.4673C34.2573 17.7394 33.2569 17.3544 32.2082 17.3544C30.8572 17.3544 29.6009 17.9886 28.6706 19.1401C27.7407 20.2913 27.2672 21.7985 27.3373 23.3838C27.7266 32.1836 24.2731 35.2124 19.4934 39.4048C17.9197 40.7849 16.1998 42.2945 14.5094 44.1457V42.2275C14.5094 41.4191 13.9521 40.764 13.2643 40.764H1.24512C0.557314 40.764 0 41.4191 0 42.2275V83.7338C0 84.5422 0.557314 85.1972 1.24512 85.1972H13.2646C13.9525 85.1972 14.5098 84.5422 14.5098 83.7338V80.052C16.8747 80.3164 18.6019 80.8704 20.28 82.3821C21.3817 83.3745 22.7397 83.9211 24.1038 83.9211H46.0629C46.96 84.435 47.9546 84.7075 48.9628 84.7075H71.0993C71.7872 84.7075 72.3445 84.0524 72.3445 83.244C72.3445 82.4355 71.7871 81.7807 71.0995 81.7807V81.7807ZM21.7949 80.0589C19.4471 77.9442 16.9379 77.3567 14.5098 77.1102V60.0217C14.5098 59.2133 13.9525 58.5582 13.2646 58.5582C12.5768 58.5582 12.0195 59.2133 12.0195 60.0217V82.2705H2.49023V43.6912H12.0195V53.645C12.0195 54.4534 12.5768 55.1085 13.2646 55.1085C13.9525 55.1085 14.5098 54.4534 14.5098 53.645V48.3033C16.5926 45.6017 18.8229 43.6455 20.983 41.7508C25.7658 37.5561 30.2831 33.5938 29.8247 23.232C29.7903 22.4563 30.0219 21.7189 30.4771 21.1556C30.9324 20.5918 31.5473 20.2816 32.2087 20.2816C32.7238 20.2816 33.2147 20.4703 33.6286 20.8274C34.0418 21.1837 34.3388 21.6746 34.4876 22.2462C36.5467 30.185 36.5145 36.8644 34.3862 43.2664C34.2364 43.7168 34.2857 44.2249 34.5176 44.6243C34.7496 45.0237 35.1344 45.2626 35.5458 45.2626H50.5816C52.1618 45.2626 53.4472 46.7743 53.4472 48.6325C53.4472 49.5311 53.1489 50.3773 52.6092 51.0133C52.0663 51.6498 51.3465 52.0004 50.5816 52.0004H45.4667C44.7789 52.0004 44.2216 52.6555 44.2216 53.4639C44.2216 54.2723 44.7789 54.9274 45.4667 54.9274H49.1888C50.7687 54.9274 52.0542 56.4391 52.0542 58.2975C52.0542 59.1976 51.7564 60.0435 51.2152 60.6795C50.6743 61.3154 49.9546 61.6655 49.1888 61.6655H45.4667C44.7789 61.6655 44.2216 62.3205 44.2216 63.1289C44.2216 63.9374 44.7789 64.5924 45.4667 64.5924H47.8223C49.4024 64.5924 50.6879 66.1033 50.6879 67.9604C50.6879 68.8603 50.3899 69.7064 49.849 70.3423C49.3068 70.9796 48.587 71.3303 47.8223 71.3303H46.1555H44.1002C43.4124 71.3303 42.8551 71.9853 42.8551 72.7938C42.8551 73.6022 43.4124 74.2572 44.1002 74.2572H46.1555C47.7356 74.2572 49.0211 75.7681 49.0211 77.6252C49.0211 78.5251 48.7228 79.372 48.1832 80.0077C47.6775 80.6007 46.8787 80.9791 46.2808 80.9916C46.2395 80.9924 24.1038 80.9951 24.1038 80.9951C23.2844 80.9941 22.4642 80.662 21.7949 80.0589V80.0589Z" fill="#017EB1"/>
<path d="M68.2477 15.4287C68.2477 12.3534 66.119 9.85144 63.5026 9.85144C60.8862 9.85144 58.7576 12.3534 58.7576 15.4287C58.7576 18.5039 60.8862 21.0059 63.5026 21.0059C66.119 21.0059 68.2477 18.5039 68.2477 15.4287ZM61.2478 15.4287C61.2478 13.9673 62.2594 12.7784 63.5026 12.7784C64.7459 12.7784 65.7575 13.9673 65.7575 15.4287C65.7575 16.89 64.7459 18.0789 63.5026 18.0789C62.2594 18.0789 61.2478 16.8902 61.2478 15.4287Z" fill="#017EB1"/>
<path d="M64.2806 65.3645H62.0475C60.8713 65.3645 59.9144 64.2396 59.9144 62.8571C59.9144 62.0487 59.3571 61.3936 58.6693 61.3936C57.9815 61.3936 57.4241 62.0487 57.4241 62.8571C57.4241 65.803 59.4289 68.207 61.9188 68.2876V71.5263C61.9188 72.3348 62.4762 72.9898 63.164 72.9898C63.8518 72.9898 64.4091 72.3348 64.4091 71.5263V68.2876C66.8992 68.207 68.904 65.803 68.904 62.8571V60.831C68.904 58.9513 67.8821 57.2984 66.3611 56.7173L60.7365 54.5699C60.2447 54.382 59.9144 53.8477 59.9144 53.2401V50.3391C59.9144 49.2163 60.6915 48.3027 61.6467 48.3027H64.6815C65.6368 48.3027 66.4139 49.2163 66.4139 50.3391C66.4139 51.1475 66.9712 51.8025 67.659 51.8025C68.3468 51.8025 68.9041 51.1475 68.9041 50.3391C68.9041 47.6024 67.0099 45.3757 64.6815 45.3757H64.4091V42.1408C64.4091 41.3324 63.8518 40.6774 63.164 40.6774C62.4762 40.6774 61.9188 41.3324 61.9188 42.1408V45.3757H61.6466C59.3184 45.3757 57.424 47.6022 57.424 50.3391V53.2401C57.424 55.1198 58.4458 56.7727 59.9668 57.3536L65.5913 59.501C66.0832 59.6889 66.4136 60.2234 66.4136 60.831V62.8571C66.4139 64.2396 65.4568 65.3645 64.2806 65.3645V65.3645Z" fill="#017EB1"/>
</svg>
