<svg width="85" height="85" viewBox="0 0 85 85" fill="none" xmlns="http://www.w3.org/2000/svg">
<g clip-path="url(#clip0)">
<path d="M57.7468 25.7571C56.8305 25.7571 56.0867 26.499 56.0867 27.4166C56.0867 28.3336 56.8305 29.0767 57.7468 29.0767C58.6651 29.0767 59.407 28.3336 59.407 27.4166C59.407 26.499 58.6651 25.7571 57.7468 25.7571Z" fill="#017EB1"/>
<path d="M27.5826 55.9207C26.6643 55.9207 25.9224 56.6645 25.9224 57.5809C25.9224 58.4991 26.6643 59.241 27.5826 59.241C28.4989 59.241 29.2427 58.4991 29.2427 57.5809C29.2427 56.6645 28.4989 55.9207 27.5826 55.9207Z" fill="#017EB1"/>
<path d="M83.1005 10.2124C82.5402 10.0821 81.9514 10.2514 81.5467 10.6599L74.6642 17.5969H71.3646L67.7324 13.8337V10.4881L74.5163 3.60295C74.9177 3.19569 75.0812 2.6101 74.9482 2.05304C74.8159 1.49663 74.4061 1.04786 73.8639 0.864988C72.1597 0.290418 70.3763 -0.000758025 68.5625 -0.000758025C63.1553 -0.000758025 58.2429 2.5206 55.0847 6.91678C52.1289 11.0321 51.2177 16.0755 52.5232 20.9023L40.2944 33.131L19.9212 12.7111V8.70339C19.9212 8.12039 19.6151 7.57954 19.1151 7.27994L7.37665 0.235944C6.72296 -0.156398 5.88704 -0.0532864 5.34879 0.485616L0.653663 5.1801C0.11541 5.719 0.0122987 6.55491 0.403992 7.2086L7.44668 18.9471C7.74629 19.4471 8.28649 19.7525 8.86949 19.7532L12.8759 19.7545L33.2511 40.1744L21.069 52.3564C16.2423 51.0516 11.1963 51.9641 7.07898 54.9219C2.68541 58.0781 0.165993 62.9892 0.165993 68.3964C0.165993 70.2096 0.457168 71.9936 1.03174 73.6972C1.21526 74.2426 1.66856 74.6544 2.22887 74.7841C2.78982 74.9144 3.378 74.7452 3.78332 74.3366L10.6652 67.4003H13.9829L17.763 71.1804V74.4981L10.8267 81.38C10.4181 81.7853 10.2488 82.3735 10.3792 82.9344C10.5089 83.4947 10.9207 83.948 11.4661 84.1316C13.1697 84.7061 14.9537 84.9973 16.7669 84.9973C22.1741 84.9973 27.0845 82.4772 30.2414 78.0837C33.1992 73.9663 34.1116 68.921 32.8069 64.0942L42.5908 54.3103L44.832 56.7448L43.8034 57.7727C43.1549 58.4212 43.1549 59.4724 43.8034 60.1209C44.4519 60.7687 45.5025 60.7687 46.1517 60.1209L47.0829 59.1896L68.1111 82.0311C68.1267 82.0479 68.1429 82.0641 68.1591 82.0803C72.0501 85.9713 78.3541 85.9726 82.2471 82.0797C86.129 78.1958 86.129 71.8762 82.2471 67.9924C82.2302 67.9755 82.2127 67.9593 82.1952 67.9431L59.3181 46.9551L60.239 46.0342C60.8875 45.3864 60.8875 44.3351 60.239 43.6866C59.5905 43.0381 58.5399 43.0381 57.8908 43.6866L56.8694 44.7087L54.4304 42.4701L64.2616 32.6388C65.6591 33.0124 67.1014 33.2017 68.5625 33.2017C77.7167 33.2017 85.1634 25.7544 85.1634 16.6008C85.1634 14.787 84.8722 13.0036 84.2976 11.2993C84.1141 10.7539 83.6608 10.3421 83.1005 10.2124V10.2124ZM14.7397 16.9218C14.4284 16.6099 14.0062 16.451 13.5653 16.451L9.81046 16.4497L3.9182 6.61198L6.78003 3.75016L16.6009 9.64371V13.3985C16.6009 13.8382 16.7753 14.2597 17.086 14.571L37.9469 35.4792L35.5986 37.8268L14.7397 16.9218ZM56.968 49.3052L79.9229 70.3639C82.487 72.9553 82.4792 77.1511 79.8989 79.7328C77.3126 82.319 73.1259 82.3268 70.5294 79.7555L49.4324 56.8395L56.968 49.3052ZM54.5192 47.0582L47.1815 54.3947L44.9403 51.9602L52.0802 44.8196L54.5192 47.0582ZM68.5625 29.8814C67.1105 29.8814 65.6825 29.6486 64.3193 29.1895C63.7221 28.9891 63.0619 29.1434 62.6157 29.5889C54.2929 37.9118 36.3593 55.8447 29.7557 62.449C29.3095 62.8952 29.1545 63.5553 29.3562 64.1533C30.7362 68.2511 30.076 72.622 27.5443 76.1466C25.0197 79.6608 21.0911 81.677 16.7669 81.677C16.2812 81.677 15.798 81.6504 15.3195 81.5992L20.5924 76.3671C20.9063 76.0558 21.0833 75.6317 21.0833 75.1888V70.4923C21.0833 70.052 20.9082 69.6298 20.5969 69.3185L15.8441 64.5657C15.5328 64.2544 15.1106 64.0793 14.6703 64.0793H9.97388C9.53096 64.0793 9.10684 64.2564 8.79491 64.5702L3.56348 69.8432C3.5116 69.3646 3.48566 68.8815 3.48566 68.3957C3.48566 64.0709 5.50119 60.1429 9.01605 57.6183C12.54 55.0866 16.9115 54.4258 21.01 55.8064C21.6073 56.0081 22.2675 55.8531 22.7136 55.407C22.8051 55.3162 55.5503 22.5702 55.5737 22.5469C56.0199 22.1007 56.1742 21.4412 55.9732 20.8433C54.5925 16.7454 55.2514 12.3758 57.7812 8.85384C60.3077 5.33639 64.237 3.31955 68.5618 3.31955C69.0625 3.31955 69.5599 3.34744 70.0527 3.40191L64.8894 8.64243C64.5833 8.95306 64.4121 9.37134 64.4121 9.80713V14.5036C64.4121 14.9342 64.5787 15.3473 64.8777 15.6566L69.4645 20.4094C69.7771 20.7337 70.2083 20.9166 70.6591 20.9166H75.3555C75.7978 20.9166 76.2219 20.7402 76.5338 20.4256L81.7652 15.1534C81.8171 15.6319 81.8431 16.1151 81.8431 16.6008C81.8431 23.9236 75.8853 29.8814 68.5625 29.8814V29.8814Z" fill="#017EB1"/>
<path d="M51.8779 30.938L31.1033 51.7126C30.4554 52.3605 30.4554 53.4117 31.1033 54.0602C31.7518 54.7087 32.803 54.7087 33.4515 54.0602L54.2261 33.2855C54.8746 32.6377 54.8746 31.5865 54.2261 30.938C53.5776 30.2895 52.5264 30.2895 51.8779 30.938V30.938Z" fill="#017EB1"/>
<path d="M72.8568 75.0391C73.5053 75.6857 74.5566 75.6857 75.2051 75.0352C75.8523 74.3861 75.8503 73.3349 75.2012 72.6877L60.2371 57.7715C59.5879 57.1243 58.5361 57.1263 57.8895 57.7754C57.2416 58.4252 57.2436 59.4758 57.8927 60.123L72.8568 75.0391Z" fill="#017EB1"/>
</g>
<defs>
<clipPath id="clip0">
<rect width="85" height="85" fill="white"/>
</clipPath>
</defs>
</svg>
