<svg width="85" height="85" viewBox="0 0 85 85" fill="none" xmlns="http://www.w3.org/2000/svg">
<path d="M82.2581 10.9677C83.7702 10.9677 85 9.73798 85 8.22581V2.73645L84.3954 2.32927C82.1292 0.804758 79.4942 0 76.7742 0C71.8332 0 67.3639 2.60484 64.914 6.85484H63.0645C63.0645 3.83048 60.605 1.37097 57.5806 1.37097C55.9341 1.37097 54.474 2.11403 53.4677 3.26565C52.4615 2.11403 51.0014 1.37097 49.3548 1.37097C47.7083 1.37097 46.2482 2.11403 45.2419 3.26565C44.2356 2.11403 42.7756 1.37097 41.129 1.37097C39.4825 1.37097 38.0224 2.11403 37.0161 3.26565C36.0098 2.11403 34.5498 1.37097 32.9032 1.37097C29.8789 1.37097 27.4194 3.83048 27.4194 6.85484H20.086C17.6361 2.60484 13.1668 0 8.22581 0C5.50581 0 2.87081 0.804758 0.604597 2.32927L0 2.73645V8.22581C0 9.73798 1.22976 10.9677 2.74194 10.9677H9.59677V16.4516H2.74194C1.22976 16.4516 0 17.6814 0 19.1935V24.6829L0.604597 25.0901C2.87081 26.6146 5.50581 27.4194 8.22581 27.4194C9.18823 27.4194 10.1219 27.2891 11.0377 27.0985L9.54056 28.5956L16.5284 35.5848C16.0828 36.5116 15.6894 37.4494 15.3548 38.3871H5.48387V57.5806H15.3535C15.688 58.517 16.0801 59.4534 16.527 60.3829L9.53919 67.3721L23.109 80.9433L30.0982 73.9541C31.0291 74.4024 31.9655 74.7945 32.9019 75.129V85H52.0954V75.1304C53.0318 74.7959 53.9681 74.4038 54.899 73.9555L61.8882 80.9447L75.4581 67.3735L68.4702 60.3843C68.9172 59.4548 69.3093 58.517 69.6438 57.582H79.5161V38.3871H69.6465C69.312 37.4494 68.9185 36.5116 68.473 35.5848L75.4608 28.5956L73.9692 27.1027C74.8809 27.2932 75.8145 27.4194 76.7742 27.4194C79.4942 27.4194 82.1292 26.6146 84.3954 25.0901L85 24.6829V19.1935C85 17.6814 83.7702 16.4516 82.2581 16.4516H75.4032V10.9677H82.2581ZM54.8387 6.85484C54.8387 5.34266 56.0685 4.1129 57.5806 4.1129C59.0928 4.1129 60.3226 5.34266 60.3226 6.85484V8.22581V23.3065C60.3226 24.8186 59.0928 26.0484 57.5806 26.0484C56.0685 26.0484 54.8387 24.8186 54.8387 23.3065V6.85484ZM46.6129 6.85484C46.6129 5.34266 47.8427 4.1129 49.3548 4.1129C50.867 4.1129 52.0968 5.34266 52.0968 6.85484V23.3065C52.0968 24.8186 50.867 26.0484 49.3548 26.0484C47.8427 26.0484 46.6129 24.8186 46.6129 23.3065V6.85484ZM38.3871 6.85484C38.3871 5.34266 39.6169 4.1129 41.129 4.1129C42.6412 4.1129 43.871 5.34266 43.871 6.85484V23.3065C43.871 24.8186 42.6412 26.0484 41.129 26.0484C39.6169 26.0484 38.3871 24.8186 38.3871 23.3065V6.85484ZM30.1613 17.1371V6.85484C30.1613 5.34266 31.391 4.1129 32.9032 4.1129C34.4154 4.1129 35.6452 5.34266 35.6452 6.85484V23.3065C35.6452 24.5019 34.8706 25.537 33.7765 25.9044L30.1613 22.6909V17.1371ZM40.2187 35.2983L42.0394 33.2487L35.9523 27.8375C36.3485 27.5702 36.7173 27.2685 37.0298 26.9107C38.0361 28.0541 39.4907 28.7903 41.129 28.7903C42.7756 28.7903 44.2356 28.0473 45.2419 26.8956C46.2482 28.0473 47.7083 28.7903 49.3548 28.7903C51.0014 28.7903 52.4615 28.0473 53.4677 26.8956C54.474 28.0473 55.9341 28.7903 57.5806 28.7903C58.5842 28.7903 59.5123 28.4997 60.3226 28.0281V33.7066L53.4677 40.5615V53.4677H50.7258V56.2097H53.4677V62.0034C50.4393 64.3765 46.6376 65.8065 42.5 65.8065C38.3624 65.8065 34.5607 64.3765 31.5323 62.0034V56.2097H47.9839V53.4677H31.5323V40.5066L21.9684 32.1382C21.0759 31.3581 20.5645 30.2298 20.5645 29.044V17.1371C20.5645 15.2479 22.1014 13.7097 23.9919 13.7097C25.8825 13.7097 27.4194 15.2479 27.4194 17.1371V23.3065V23.922L40.2187 35.2983ZM58.2497 39.6566C59.6028 42.2107 60.3226 45.0486 60.3226 47.9839C60.3226 52.3038 58.7761 56.2673 56.2097 59.356V41.6966L58.2497 39.6566ZM28.7903 41.7515V59.356C26.2239 56.2673 24.6774 52.3038 24.6774 47.9839C24.6774 45.1487 25.3506 42.3643 26.631 39.8623L28.7903 41.7515ZM8.22581 24.6774C6.29137 24.6774 4.40903 24.1674 2.74194 23.1954V19.1935H12.3387V8.22581H2.74194V4.22395C4.40903 3.25194 6.29137 2.74194 8.22581 2.74194C12.4086 2.74194 16.1692 5.07806 18.0392 8.83726L18.419 9.59677H27.4194V12.0124C26.4377 11.3544 25.2601 10.9677 23.9919 10.9677C20.5906 10.9677 17.8226 13.7357 17.8226 17.1371V18.9523C15.8923 22.4866 12.2647 24.6774 8.22581 24.6774ZM65.121 35.057L65.5885 35.9495C66.3151 37.341 66.9101 38.76 67.3529 40.1694L67.6559 41.129H76.7742V54.8387H67.6559L67.3529 55.7984C66.9114 57.2009 66.3178 58.6212 65.5871 60.0196L65.121 60.9121L71.5823 67.3735L61.8896 77.0676L55.4269 70.6048L54.5357 71.071C53.136 71.8017 51.717 72.3953 50.3159 72.8354L49.3562 73.137V82.2581H35.6452V73.1384L34.6855 72.8368C33.2844 72.3967 31.864 71.8031 30.4656 71.0723L29.5745 70.6062L23.1118 77.0676L13.419 67.3735L19.8804 60.9121L19.4143 60.0196C18.6835 58.6212 18.0899 57.2009 17.6485 55.7984L17.3441 54.8387H8.22581V41.129H17.3441L17.6471 40.1694C18.0899 38.76 18.6849 37.341 19.4115 35.9495L19.879 35.057L13.4177 28.5956L17.8226 24.1907V29.044C17.8226 31.0195 18.6753 32.9005 20.1642 34.2029L24.5225 38.0169C22.8348 41.0564 21.9355 44.4838 21.9355 47.9839C21.9355 59.3231 31.1607 68.5484 42.5 68.5484C53.8393 68.5484 63.0645 59.3231 63.0645 47.9839C63.0645 44.3124 62.1021 40.7671 60.2719 37.6344L63.0645 34.8418V23.3065V20.5645H63.5526L71.5823 28.5956L65.121 35.057ZM82.2581 19.1935V23.1954C80.591 24.1674 78.7086 24.6774 76.7742 24.6774C72.5914 24.6774 68.8308 22.3413 66.9608 18.5821L66.581 17.8226H63.0645V9.59677H66.581L66.9594 8.83726C68.8308 5.07806 72.5914 2.74194 76.7742 2.74194C78.7086 2.74194 80.591 3.25194 82.2581 4.22395V8.22581H72.6613V19.1935H82.2581Z" fill="#017EB1"/>
</svg>
