<svg width="85" height="85" viewBox="0 0 85 85" fill="none" xmlns="http://www.w3.org/2000/svg">
<path d="M14.9498 65.7338C13.7598 65.7338 12.6159 66.0308 11.601 66.5885C6.25477 59.7351 3.32031 51.2217 3.32031 42.5C3.32031 20.8959 20.8959 3.32031 42.5 3.32031C45.1264 3.32031 47.7515 3.58166 50.3027 4.09721C51.2003 4.27879 52.077 3.69774 52.2586 2.79892C52.4402 1.9001 51.8591 1.02463 50.9603 0.8424C48.1932 0.283394 45.3469 0 42.5 0C31.148 0 20.475 4.42081 12.4479 12.4479C4.42081 20.475 0 31.148 0 42.5C0 52.0491 3.24249 61.3681 9.14577 68.8388C8.38573 69.9743 7.97718 71.3089 7.97718 72.7064C7.97718 74.5689 8.70285 76.3198 10.02 77.6363C11.3364 78.9534 13.0873 79.6791 14.9498 79.6791C16.8123 79.6791 18.5633 78.9534 19.8804 77.6363C21.1975 76.3198 21.9225 74.5683 21.9225 72.7058C21.9225 70.8439 21.1975 69.0923 19.8804 67.7759C18.5633 66.4588 16.8123 65.7338 14.9498 65.7338V65.7338ZM17.5322 75.2887C16.8428 75.9787 15.9252 76.3588 14.9498 76.3588C13.9745 76.3588 13.0575 75.9787 12.3675 75.2887C11.6775 74.5987 11.2975 73.6818 11.2975 72.7064C11.2975 71.7304 11.6775 70.8134 12.3675 70.1234C13.0569 69.4334 13.9745 69.0541 14.9498 69.0541C15.9252 69.0541 16.8422 69.4341 17.5322 70.1234C18.2222 70.8134 18.6022 71.7304 18.6022 72.7064C18.6022 73.6818 18.2222 74.5987 17.5322 75.2887V75.2887Z" fill="#017EB1"/>
<path d="M75.8529 16.1593C77.6577 13.4518 77.3678 9.75017 74.9807 7.36304C73.6636 6.04659 71.9126 5.32092 70.0502 5.32092C68.1877 5.32092 66.4367 6.04659 65.1196 7.36304C63.8025 8.68015 63.0775 10.4311 63.0775 12.2936C63.0775 14.1561 63.8025 15.907 65.1196 17.2241C66.4367 18.5412 68.1877 19.2662 70.0502 19.2662C71.2401 19.2662 72.3841 18.9692 73.399 18.4115C78.7452 25.2655 81.6797 33.7783 81.6797 42.5C81.6797 64.1041 64.1041 81.6797 42.5 81.6797C39.8995 81.6797 37.299 81.4235 34.7718 80.9177C33.873 80.7381 32.9982 81.3211 32.8179 82.2199C32.6383 83.1193 33.2213 83.9935 34.1201 84.1738C36.8613 84.7218 39.681 85 42.5 85C53.852 85 64.5249 80.5792 72.5521 72.5521C80.5792 64.5249 85 53.852 85 42.5C85 32.9502 81.7568 23.6306 75.8529 16.1593V16.1593ZM67.4678 14.8765C66.7778 14.1865 66.3978 13.2696 66.3978 12.2936C66.3978 11.3182 66.7778 10.4013 67.4678 9.71126C68.1572 9.02126 69.0748 8.64124 70.0502 8.64124C71.0255 8.64124 71.9431 9.02126 72.6331 9.71126C74.0566 11.1354 74.0566 13.4524 72.6331 14.8765C71.9431 15.5659 71.0255 15.9459 70.0502 15.9459C69.0742 15.9459 68.1572 15.5659 67.4678 14.8765Z" fill="#017EB1"/>
<path d="M35.6492 71.0547C35.6492 71.9717 36.3931 72.7148 37.3094 72.7148H47.6899C48.6069 72.7148 49.3501 71.9717 49.3501 71.0547V67.8362C51.5329 67.2486 53.6198 66.3836 55.5808 65.2539L57.8532 67.5262C58.1645 67.8375 58.5866 68.0126 59.0276 68.0126C59.4673 68.0126 59.8901 67.8375 60.2014 67.5256L67.5385 60.1833C68.1863 59.5348 68.1863 58.4835 67.5385 57.8357L65.2688 55.5659C66.3984 53.6049 67.2635 51.518 67.8511 49.3352H71.0573C71.9742 49.3352 72.7174 48.592 72.7174 47.675V37.2945C72.7174 36.3775 71.9742 35.6343 71.0573 35.6343H67.8504C67.2629 33.4521 66.3984 31.3653 65.2688 29.4042L67.5262 27.1468C67.8375 26.8355 68.0126 26.4127 68.0126 25.9724C68.0119 25.532 67.8368 25.1092 67.5255 24.7979L60.1826 17.4608C59.5347 16.813 58.4835 16.813 57.835 17.4615L55.5808 19.7163C53.6198 18.5866 51.5329 17.7215 49.3501 17.134V13.9453C49.3501 13.0283 48.6069 12.2852 47.6899 12.2852H37.3094C36.3931 12.2852 35.6492 13.0283 35.6492 13.9453V17.1346C33.467 17.7215 31.3802 18.5866 29.4191 19.7163L27.1643 17.4615C26.5164 16.8136 25.4652 16.813 24.8167 17.4608L17.4744 24.7986C17.1625 25.1099 16.9874 25.532 16.9874 25.9724C16.9874 26.4127 17.1625 26.8355 17.4738 27.1468L19.7312 29.4042C18.6015 31.3653 17.7364 33.4515 17.1489 35.6343H13.9485C13.0315 35.6343 12.2884 36.3775 12.2884 37.2939L12.2825 47.6744C12.2819 48.1147 12.457 48.5375 12.7683 48.8488C13.0795 49.1601 13.5017 49.3352 13.9427 49.3352H17.1489C17.7364 51.518 18.6015 53.6049 19.7312 55.5659L17.4614 57.8357C16.8136 58.4835 16.8129 59.5348 17.4614 60.1833L24.7986 67.5256C25.1098 67.8368 25.532 68.0126 25.9723 68.0126H25.973C26.4133 68.0126 26.8355 67.8375 27.1468 67.5262L29.4185 65.2539C31.3802 66.3836 33.467 67.2486 35.6492 67.8362V71.0547ZM30.0696 61.7624C29.4126 61.3376 28.5482 61.4297 27.9944 61.9828L25.973 64.0042L20.9828 59.0101L23.0022 56.9901C23.5554 56.4369 23.6475 55.5724 23.2227 54.9155C21.7175 52.5861 20.6592 50.033 20.0781 47.3261C19.9134 46.5615 19.2377 46.0149 18.4549 46.0149H15.6035L15.6074 38.9547H18.4549C19.2377 38.9547 19.9134 38.4086 20.0781 37.6434C20.6592 34.9372 21.7175 32.3841 23.2227 30.0547C23.6475 29.3977 23.5554 28.5333 23.0022 27.9801L20.9958 25.973L25.9898 20.9828L27.9944 22.988C28.5482 23.5411 29.412 23.6326 30.0696 23.2085C32.3983 21.7033 34.9514 20.645 37.6583 20.0639C38.4229 19.8992 38.9695 19.2228 38.9695 18.4407V15.6055H46.0297V18.4401C46.0297 19.2228 46.5758 19.8992 47.341 20.0632C50.0472 20.645 52.601 21.7027 54.9297 23.2078C55.5867 23.6326 56.4511 23.5411 57.0043 22.9873L59.0094 20.9828L64.0035 25.973L61.9971 27.9795C61.4433 28.5333 61.3518 29.3977 61.7766 30.0547C63.2818 32.3841 64.3395 34.9372 64.9212 37.6434C65.0852 38.4086 65.7616 38.9547 66.5443 38.9547H69.3971V46.0149H66.5443C65.7616 46.0149 65.0859 46.5615 64.9212 47.3261C64.3401 50.0323 63.2818 52.5861 61.7766 54.9149C61.3518 55.5724 61.4439 56.4369 61.9971 56.9901L64.0165 59.0095L59.0263 64.0036L57.0049 61.9828C56.4511 61.429 55.5867 61.3376 54.9297 61.7624C52.6003 63.2675 50.0472 64.3252 47.341 64.9069C46.5758 65.0716 46.0297 65.7474 46.0297 66.5301V69.3945H38.9695V66.5301C38.9695 65.748 38.4229 65.0716 37.6583 64.9069C34.9521 64.3259 32.399 63.2675 30.0696 61.7624V61.7624Z" fill="#017EB1"/>
<path d="M56.2177 42.5C56.2177 34.936 50.0641 28.7823 42.5 28.7823C34.9359 28.7823 28.7823 34.936 28.7823 42.5C28.7823 50.0641 34.9359 56.2177 42.5 56.2177C50.0641 56.2177 56.2177 50.0641 56.2177 42.5ZM32.1026 42.5C32.1026 36.7667 36.7666 32.1027 42.5 32.1027C48.2334 32.1027 52.8974 36.7673 52.8974 42.5C52.8974 48.2328 48.2334 52.8974 42.5 52.8974C36.7666 52.8974 32.1026 48.2334 32.1026 42.5Z" fill="#017EB1"/>
<path d="M57.7864 6.2788C58.2235 6.2788 58.6515 6.10111 58.9602 5.79243C59.2688 5.4818 59.4465 5.05379 59.4465 4.6167C59.4465 4.18221 59.2695 3.75355 58.9602 3.44292C58.6515 3.13423 58.2235 2.95654 57.7864 2.95654C57.348 2.95654 56.9219 3.13423 56.6132 3.44292C56.3039 3.75355 56.1262 4.18026 56.1262 4.6167C56.1262 5.05508 56.3039 5.4818 56.6132 5.79243C56.9219 6.10111 57.348 6.2788 57.7864 6.2788Z" fill="#017EB1"/>
<path d="M27.2863 78.7511C26.8498 78.7511 26.4212 78.9288 26.1125 79.2375C25.8038 79.5462 25.6261 79.9748 25.6261 80.4113C25.6261 80.8496 25.8038 81.2764 26.1125 81.585C26.4212 81.8937 26.8498 82.0714 27.2863 82.0714C27.7227 82.0714 28.1514 81.8937 28.46 81.585C28.7687 81.2764 28.9464 80.8477 28.9464 80.4113C28.9464 79.9748 28.7687 79.5462 28.46 79.2375C28.1514 78.9288 27.7227 78.7511 27.2863 78.7511Z" fill="#017EB1"/>
</svg>
