<svg width="35" height="35" viewBox="0 0 35 35" fill="none" xmlns="http://www.w3.org/2000/svg">
<path d="M17.5 2.91675C13.6323 2.91675 9.92292 4.4532 7.18802 7.18811C4.45311 9.92301 2.91666 13.6323 2.91666 17.5001C2.91666 21.3678 4.45311 25.0772 7.18802 27.8121C9.92292 30.547 13.6323 32.0834 17.5 32.0834C21.3677 32.0834 25.0771 30.547 27.812 27.8121C30.5469 25.0772 32.0833 21.3678 32.0833 17.5001C32.0833 13.6323 30.5469 9.92301 27.812 7.18811C25.0771 4.4532 21.3677 2.91675 17.5 2.91675Z" fill="#29B6F6"/>
<path d="M24.7552 10.9374L22.0237 24.8835C22.0237 24.8835 21.9063 25.5208 21.1159 25.5208C20.6959 25.5208 20.4794 25.321 20.4794 25.321L14.5629 20.4115L11.6681 18.9524L7.95301 17.9644C7.95301 17.9644 7.29166 17.7734 7.29166 17.2265C7.29166 16.7708 7.97197 16.5535 7.97197 16.5535L23.5149 10.3789C23.5142 10.3782 23.9896 10.2075 24.3359 10.2083C24.5488 10.2083 24.7917 10.2994 24.7917 10.5728C24.7917 10.7551 24.7552 10.9374 24.7552 10.9374Z" fill="white"/>
<path d="M16.7708 22.2433L14.2727 24.7035C14.2727 24.7035 14.1641 24.7873 14.019 24.791C13.9687 24.7924 13.9147 24.7844 13.8593 24.7596L14.5622 20.4102L16.7708 22.2433Z" fill="#B0BEC5"/>
<path d="M21.7999 13.2678C21.6767 13.1074 21.4492 13.0783 21.2887 13.2L11.6667 18.9583C11.6667 18.9583 13.2023 23.2545 13.4363 23.9983C13.6711 24.7427 13.8593 24.7602 13.8593 24.7602L14.5622 20.4108L21.7313 13.7783C21.8918 13.6565 21.9217 13.4283 21.7999 13.2678Z" fill="#CFD8DC"/>
</svg>
