<svg width="36" height="35" viewBox="0 0 36 35" fill="none" xmlns="http://www.w3.org/2000/svg">
<path d="M18 3.64575C16.0208 3.64575 9.9975 3.64575 6.6675 6.60179C4.6845 8.52242 3.75 11.2976 3.75 15.3124V17.4999C3.75 21.5147 4.6845 24.2899 6.69075 26.2324C7.68975 27.1184 9.05175 27.8264 10.7167 28.3156L11.25 28.4717V32.3567C11.25 32.8124 11.3858 32.8124 11.4307 32.8124C11.523 32.8124 11.6708 32.784 11.9513 32.5419C12.0188 32.477 12.5138 31.9564 14.9213 29.3343L15.1642 29.0696L15.528 29.0922C16.3343 29.1411 17.166 29.1666 18 29.1666C19.9792 29.1666 26.0025 29.1666 29.3325 26.2098C31.3148 24.2892 32.25 21.514 32.25 17.4999V15.3124C32.25 11.2976 31.3155 8.52242 29.3092 6.57992C26.0025 3.64575 19.9792 3.64575 18 3.64575Z" fill="white"/>
<path d="M25.0882 21.0393C24.255 20.3568 23.8702 20.1504 22.7197 19.4789C22.2405 19.1996 21.51 18.9583 21.1267 18.9583C20.865 18.9583 20.5515 19.1529 20.3595 19.3396C19.8675 19.8179 19.7063 20.4166 18.8438 20.4166C18 20.4166 16.5263 19.5817 15.4688 18.5025C14.3588 17.4744 13.5 16.0416 13.5 15.2213C13.5 14.3827 14.1045 14.215 14.5965 13.736C14.7885 13.55 15 13.2452 15 12.9908C15 12.6181 14.7518 11.9189 14.4645 11.4529C13.7738 10.3337 13.5623 9.95961 12.8595 9.15023C12.6218 8.87606 12.351 8.75065 12.0675 8.74992C11.5883 8.74919 10.959 8.98034 10.533 9.28877C9.8925 9.75325 9.22275 10.3854 9.0435 11.1729C9.0195 11.2801 9.00525 11.388 9.00075 11.496C8.96625 12.3163 9.29775 13.149 9.6555 13.8541C10.4978 15.5159 11.6123 17.1244 12.825 18.5609C13.2128 19.0202 13.635 19.4475 14.0723 19.8602C14.4968 20.2846 14.9363 20.6951 15.4088 21.0728C16.8863 22.2519 18.5408 23.3354 20.25 24.1543C20.9685 24.4985 21.8145 24.8149 22.65 24.7916C22.7693 24.7879 22.8885 24.7748 23.0077 24.7493C23.8177 24.5758 24.468 23.9239 24.9458 23.3012C25.263 22.887 25.5007 22.276 25.5 21.8093C25.4993 21.5337 25.3703 21.2704 25.0882 21.0393ZM25.5 17.4999C25.086 17.4999 24.75 17.1733 24.75 16.7708V16.0416C24.75 12.4235 21.7215 9.47909 18 9.47909C17.586 9.47909 17.25 9.15242 17.25 8.74992C17.25 8.34742 17.586 8.02075 18 8.02075C22.5487 8.02075 26.25 11.6192 26.25 16.0416V16.7708C26.25 17.1733 25.914 17.4999 25.5 17.4999ZM20.8935 16.0416C20.5605 16.0416 20.256 15.8243 20.1683 15.4962C19.9628 14.7298 19.3477 14.1312 18.5625 13.9343C18.1613 13.8329 17.9205 13.4355 18.024 13.0454C18.1275 12.6561 18.5355 12.422 18.9382 12.5219C20.2492 12.8522 21.2768 13.8504 21.6195 15.1279C21.7238 15.518 21.4838 15.9154 21.0833 16.0175C21.0195 16.0336 20.9557 16.0416 20.8935 16.0416Z" fill="#7E57C2"/>
<path d="M23.25 16.7709C22.836 16.7709 22.5 16.4443 22.5 16.0418C22.5 13.7172 20.6295 11.7995 18.2415 11.677C17.8275 11.6558 17.5102 11.3124 17.532 10.9106C17.5537 10.5081 17.913 10.1989 18.3202 10.2208C21.5055 10.3842 24 12.9413 24 16.0418C24 16.4443 23.664 16.7709 23.25 16.7709Z" fill="#7E57C2"/>
<path d="M18 2.91675C14.625 2.91675 9.36599 3.21862 6.16199 6.06383C3.89699 8.25644 2.99999 11.3321 2.99999 15.3126C2.99999 15.6422 2.99849 16.0097 3.00149 16.4063C2.99849 16.8023 2.99999 17.1698 2.99999 17.4994C2.99999 21.4799 3.89699 24.5555 6.16199 26.7481C7.38149 27.8309 8.90249 28.5433 10.5 29.0129V32.3568C10.5 33.5206 11.2867 33.5417 11.4307 33.5417H11.4375C11.808 33.5403 12.1282 33.3638 12.4492 33.0867C12.57 32.9825 13.9642 31.4716 15.4807 29.8194C16.3837 29.8755 17.2417 29.8959 17.9992 29.8959C21.3742 29.8959 26.6325 29.5933 29.8372 26.7481C32.1015 24.5562 32.9992 21.4799 32.9992 17.4994C32.9992 17.1698 33.0007 16.8023 32.9977 16.4056C33.0007 16.0089 32.9992 15.6422 32.9992 15.3119C32.9992 11.3313 32.1022 8.25571 29.8372 6.0631C26.6332 3.21862 21.375 2.91675 18 2.91675ZM30.75 17.2456V17.4994C30.75 21.0766 29.9662 23.5142 28.2855 25.1644C25.374 27.7084 19.8277 27.7084 17.9992 27.7084C17.4427 27.7084 16.5397 27.7077 15.474 27.6355C15.1777 27.9592 12 31.4148 12 31.4148V27.1397C10.422 26.7714 8.86274 26.1677 7.71449 25.1651C6.03374 23.5142 5.24999 21.0766 5.24999 17.4994V17.2456C5.24999 16.9897 5.24924 16.7133 5.25149 16.3903C5.24924 16.0986 5.24924 15.823 5.24999 15.5663V15.3126C5.24999 11.7353 6.03374 9.29769 7.71449 7.64758C10.6252 5.10352 16.1722 5.10352 18 5.10352C19.8277 5.10352 25.374 5.10352 28.2847 7.64758C29.9662 9.29769 30.7492 11.7353 30.7492 15.3126V15.5663C30.7492 15.8223 30.75 16.0986 30.7477 16.4216C30.75 16.714 30.75 16.9897 30.75 17.2456Z" fill="#7E57C2"/>
</svg>
